<svg width="409" height="404" viewBox="0 0 409 404" fill="none" xmlns="http://www.w3.org/2000/svg">
<path opacity="0.2" d="M0.0076951 394.168C0.00771805 399.332 4.15918 403.493 9.31274 403.493C14.4663 403.493 18.6178 399.332 18.6178 394.168C18.6178 389.005 14.4663 384.845 9.31274 384.845C4.15918 384.845 0.0076951 389.005 0.0076951 394.168ZM9.31274 336.794C4.15919 336.794 0.00772953 340.953 0.0076951 346.118C0.00771805 351.281 4.15919 355.441 9.31274 355.441C14.4663 355.441 18.6178 351.281 18.6178 346.118C18.6178 340.953 14.4663 336.794 9.31274 336.794ZM0.0792809 297.994C0.0792924 292.83 4.23077 288.67 9.38433 288.67C14.3948 288.67 18.6178 292.901 18.6894 297.994C18.6894 303.157 14.5379 307.317 9.38433 307.317C4.23077 307.317 0.0792809 303.157 0.0792809 297.994ZM9.31274 240.546C4.15919 240.546 0.00770657 244.706 0.0076951 249.87C0.00771805 255.034 4.15919 259.193 9.31274 259.193C14.4663 259.193 18.6178 255.034 18.6178 249.87C18.6178 244.706 14.4663 240.546 9.31274 240.546ZM0.0076951 201.818C0.00770657 196.655 4.15919 192.494 9.31274 192.494C14.4663 192.494 18.6178 196.655 18.6178 201.818C18.6178 206.982 14.4663 211.141 9.31274 211.141C4.15919 211.141 0.00771805 206.982 0.0076951 201.818ZM9.31275 144.299C4.15921 144.299 0.00771352 148.459 0.00770969 153.622C0.00773265 158.786 4.15921 162.947 9.31275 162.947C14.4663 162.947 18.6178 158.786 18.6178 153.622C18.6178 148.459 14.4663 144.299 9.31275 144.299ZM0.00770969 105.571C0.00771352 100.407 4.15921 96.2473 9.31275 96.2473C14.4663 96.2473 18.6178 100.407 18.6178 105.571C18.6178 110.734 14.4663 114.894 9.31275 114.894C4.15921 114.894 0.00773265 110.734 0.00770969 105.571ZM2.72763 63.9736C6.3645 67.6177 12.2611 67.6177 15.8979 63.9736C19.5347 60.3296 19.5347 54.4214 15.8979 50.7773C12.2611 47.1332 6.36451 47.1332 2.72765 50.7772C-0.90921 54.4214 -0.909217 60.3296 2.72763 63.9736ZM0.00770969 9.32351C0.00771734 4.15971 4.15921 -3.83341e-05 9.31275 2.64952e-10C14.4663 2.64952e-10 18.6178 4.15971 18.6178 9.32351C18.6178 14.4872 14.4663 18.6469 9.31275 18.647C4.15921 18.6469 0.00772882 14.4872 0.00770969 9.32351ZM52.6886 384.845C47.535 384.845 43.3836 389.006 43.3836 394.169C43.3836 399.333 47.535 403.493 52.6886 403.493C57.8421 403.493 61.9937 399.333 61.9937 394.169C61.9937 389.006 57.8421 384.845 52.6886 384.845ZM61.9937 346.118C61.9937 351.281 57.8421 355.441 52.6886 355.441C47.535 355.441 43.3836 351.281 43.3836 346.118C43.3836 340.953 47.535 336.794 52.6886 336.794C57.8421 336.794 61.9937 340.953 61.9937 346.118ZM52.6886 307.245C57.8422 307.245 61.9937 303.085 61.9937 297.922C61.9937 292.758 57.8422 288.599 52.6886 288.599C47.5351 288.599 43.3836 292.758 43.3836 297.922C43.3836 303.085 47.6067 307.317 52.6886 307.245ZM61.9937 249.87C61.9937 255.034 57.8422 259.193 52.6886 259.193C47.5351 259.193 43.3836 255.034 43.3836 249.87C43.3836 244.706 47.5351 240.546 52.6886 240.546C57.8422 240.546 61.9937 244.706 61.9937 249.87ZM52.7602 211.069C57.9138 211.069 62.0653 206.91 62.0653 201.746C62.0653 196.583 57.9138 192.423 52.7602 192.423C47.6066 192.423 43.4551 196.583 43.4551 201.746C43.4551 206.91 47.6066 211.069 52.7602 211.069ZM61.9937 153.622C61.9937 158.786 57.8422 162.947 52.6886 162.947C47.535 162.947 43.3836 158.786 43.3836 153.622C43.3836 148.459 47.535 144.299 52.6886 144.299C57.8422 144.299 61.9937 148.459 61.9937 153.622ZM182.816 355.441C187.97 355.441 192.121 351.281 192.121 346.118C192.121 340.953 187.97 336.794 182.816 336.794C177.663 336.794 173.511 340.953 173.511 346.118C173.511 351.281 177.663 355.441 182.816 355.441ZM303.638 153.622C303.638 148.459 307.791 144.299 312.944 144.299C318.097 144.299 322.249 148.459 322.249 153.622C322.249 158.786 318.097 162.947 312.944 162.947C307.791 162.947 303.638 158.786 303.638 153.622ZM148.745 346.118C148.745 351.281 144.594 355.441 139.44 355.441C134.287 355.441 130.136 351.281 130.136 346.118C130.136 340.953 134.287 336.794 139.44 336.794C144.594 336.794 148.745 340.953 148.745 346.118ZM322.249 249.87C322.249 255.034 318.097 259.193 312.944 259.193C307.791 259.193 303.638 255.034 303.638 249.87C303.638 244.706 307.791 240.546 312.944 240.546C318.097 240.546 322.249 244.706 322.249 249.87ZM312.944 96.2473C307.791 96.2473 303.638 100.407 303.638 105.571C303.638 110.734 307.791 114.894 312.944 114.894C318.097 114.894 322.249 110.734 322.249 105.571C322.249 100.407 318.097 96.2473 312.944 96.2473ZM312.944 384.845C307.791 384.845 303.638 389.006 303.638 394.169C303.638 399.333 307.791 403.493 312.944 403.493C318.097 403.493 322.249 399.333 322.249 394.169C322.177 389.077 318.025 384.917 312.944 384.845ZM260.263 105.571C260.263 100.407 264.414 96.2473 269.568 96.2473C274.721 96.2473 278.872 100.407 278.872 105.571C278.872 110.734 274.721 114.894 269.568 114.894C264.414 114.894 260.263 110.734 260.263 105.571ZM269.568 144.299C264.414 144.299 260.263 148.459 260.263 153.622C260.263 158.786 264.414 162.947 269.568 162.947C274.721 162.947 278.872 158.786 278.872 153.622C278.872 148.459 274.721 144.299 269.568 144.299ZM269.568 259.193C274.721 259.193 278.872 255.034 278.872 249.87C278.872 244.706 274.721 240.546 269.568 240.546C264.414 240.546 260.263 244.706 260.263 249.87C260.263 255.034 264.414 259.193 269.568 259.193ZM312.944 307.245C318.097 307.245 322.249 303.085 322.249 297.922C322.249 292.758 318.097 288.599 312.944 288.599C307.791 288.599 303.638 292.758 303.638 297.922C303.638 303.085 307.791 307.245 312.944 307.245ZM322.249 346.118C322.249 351.281 318.097 355.441 312.944 355.441C307.791 355.441 303.638 351.281 303.638 346.118C303.638 340.953 307.791 336.794 312.944 336.794C318.097 336.794 322.249 340.953 322.249 346.118ZM260.263 394.169C260.263 389.006 264.414 384.845 269.568 384.845C274.649 384.917 278.802 389.077 278.872 394.169C278.872 399.333 274.721 403.493 269.568 403.493C264.414 403.493 260.263 399.333 260.263 394.169ZM226.192 114.894C231.346 114.894 235.497 110.734 235.497 105.571C235.497 100.407 231.346 96.2473 226.192 96.2473C221.038 96.2473 216.887 100.407 216.887 105.571C216.959 110.662 221.11 114.823 226.192 114.894ZM278.872 297.922C278.872 303.085 274.721 307.245 269.568 307.245C264.414 307.245 260.263 303.085 260.263 297.922C260.263 292.758 264.414 288.599 269.568 288.599C274.721 288.599 278.872 292.758 278.872 297.922ZM226.192 307.245C231.346 307.245 235.497 303.085 235.497 297.922C235.497 292.758 231.346 288.599 226.192 288.599C221.038 288.599 216.887 292.758 216.887 297.922C216.887 303.085 221.038 307.245 226.192 307.245ZM269.568 355.441C274.721 355.441 278.872 351.281 278.872 346.118C278.872 340.953 274.721 336.794 269.568 336.794C264.414 336.794 260.263 340.953 260.263 346.118C260.263 351.281 264.414 355.441 269.568 355.441ZM226.192 384.845C221.038 384.845 216.887 389.006 216.887 394.169C216.887 399.333 221.038 403.493 226.192 403.493C231.346 403.493 235.497 399.333 235.497 394.169C235.425 389.077 231.274 384.917 226.192 384.845ZM235.497 346.118C235.497 351.281 231.346 355.441 226.192 355.441C221.038 355.441 216.887 351.281 216.887 346.118C216.887 340.953 221.038 336.794 226.192 336.794C231.346 336.794 235.497 340.953 235.497 346.118ZM173.511 394.169C173.511 389.006 177.663 384.845 182.816 384.845C187.898 384.917 192.049 389.077 192.121 394.169C192.121 399.333 187.97 403.493 182.816 403.493C177.663 403.493 173.511 399.333 173.511 394.169ZM148.745 249.87C148.745 255.034 144.594 259.193 139.44 259.193C134.287 259.193 130.136 255.034 130.136 249.87C130.136 244.706 134.287 240.546 139.44 240.546C144.594 240.546 148.745 244.706 148.745 249.87ZM139.44 384.339C134.015 384.339 129.63 388.734 129.63 394.17C129.63 399.606 134.015 404 139.44 404C144.865 404 149.25 399.606 149.25 394.17V394.167V394.163C149.176 388.798 144.801 384.415 139.448 384.339H139.444L139.44 384.339ZM139.436 385.353C144.243 385.423 148.17 389.356 148.238 394.174C148.238 394.175 148.238 394.175 148.238 394.176C148.235 399.065 144.32 402.986 139.44 402.986C134.558 402.986 130.642 399.062 130.642 394.17C130.642 389.281 134.556 385.355 139.436 385.353ZM139.44 384.845C134.287 384.845 130.136 389.006 130.136 394.169C130.136 399.333 134.287 403.493 139.44 403.493C144.594 403.493 148.745 399.333 148.745 394.169C148.674 389.077 144.522 384.917 139.44 384.845ZM96.0645 259.193C101.219 259.193 105.37 255.034 105.37 249.87C105.37 244.706 101.219 240.546 96.0645 240.546C90.9109 240.546 86.7594 244.706 86.7594 249.87C86.7594 255.034 90.9109 259.193 96.0645 259.193ZM96.0645 355.441C101.219 355.441 105.37 351.281 105.37 346.118C105.37 340.953 101.219 336.794 96.0645 336.794C90.9109 336.794 86.7594 340.953 86.7594 346.118C86.7594 351.281 90.9109 355.441 96.0645 355.441ZM86.7594 394.169C86.7594 389.006 90.9109 384.845 96.0645 384.845C101.147 384.917 105.298 389.077 105.37 394.169C105.37 399.333 101.219 403.493 96.0645 403.493C90.9109 403.493 86.7594 399.333 86.7594 394.169ZM52.6886 114.894C57.8422 114.894 61.9937 110.734 61.9937 105.571C61.9937 100.407 57.8422 96.2473 52.6886 96.2473C47.535 96.2473 43.3836 100.407 43.3836 105.571C43.4551 110.662 47.6066 114.823 52.6886 114.894ZM61.9937 57.3754C61.9937 62.5392 57.8422 66.699 52.6886 66.699C47.535 66.699 43.3836 62.5392 43.3836 57.3754C43.3836 52.2117 47.535 48.0519 52.6886 48.0519C57.8422 48.0519 61.9937 52.2117 61.9937 57.3754ZM52.6886 18.647C57.8421 18.647 61.9937 14.4873 61.9937 9.32351C61.9937 4.15975 57.8421 2.64952e-10 52.6886 2.64952e-10C47.535 2.64952e-10 43.3836 4.15975 43.3836 9.32351C43.4551 14.4155 47.6066 18.5752 52.6886 18.647ZM105.37 297.922C105.37 303.085 101.219 307.245 96.0645 307.245C90.9825 307.317 86.7594 303.085 86.7594 297.922C86.7594 292.758 90.9109 288.599 96.0645 288.599C101.219 288.599 105.37 292.758 105.37 297.922ZM105.441 201.746C105.441 206.91 101.289 211.069 96.136 211.069C90.9824 211.069 86.831 206.91 86.831 201.746C86.831 196.583 90.9824 192.423 96.136 192.423C101.289 192.423 105.441 196.583 105.441 201.746ZM96.0645 162.947C101.219 162.947 105.37 158.786 105.37 153.622C105.37 148.459 101.219 144.299 96.0645 144.299C90.9109 144.299 86.7594 148.459 86.7594 153.622C86.7594 158.786 90.9109 162.947 96.0645 162.947ZM105.37 105.571C105.37 110.734 101.219 114.894 96.0645 114.894C90.9825 114.823 86.831 110.662 86.7594 105.571C86.7594 100.407 90.9109 96.2473 96.0645 96.2473C101.219 96.2473 105.37 100.407 105.37 105.571ZM96.0645 66.699C101.219 66.699 105.37 62.5392 105.37 57.3754C105.37 52.2117 101.219 48.0519 96.0645 48.0519C90.9109 48.0519 86.7594 52.2116 86.7594 57.3754C86.7594 62.5392 90.9109 66.699 96.0645 66.699ZM105.37 9.32351C105.37 14.4873 101.219 18.647 96.0645 18.647C90.9825 18.5754 86.831 14.4155 86.7594 9.32351C86.7594 4.15975 90.9109 2.64952e-10 96.0645 2.64952e-10C101.219 2.64952e-10 105.37 4.15975 105.37 9.32351ZM182.816 259.193C187.97 259.193 192.121 255.034 192.121 249.87C192.121 244.706 187.97 240.546 182.816 240.546C177.663 240.546 173.511 244.706 173.511 249.87C173.511 255.034 177.663 259.193 182.816 259.193ZM130.136 297.922C130.136 303.085 134.359 307.317 139.44 307.245C144.594 307.245 148.745 303.085 148.745 297.922C148.745 292.758 144.594 288.599 139.44 288.599C134.287 288.599 130.136 292.758 130.136 297.922ZM139.44 210.998C144.594 210.998 148.745 206.838 148.745 201.674C148.745 196.511 144.594 192.351 139.44 192.351C134.287 192.351 130.136 196.511 130.136 201.674C130.136 206.838 134.359 211.069 139.44 210.998ZM148.745 153.622C148.745 158.786 144.594 162.947 139.44 162.947C134.287 162.947 130.136 158.786 130.136 153.622C130.136 148.459 134.287 144.299 139.44 144.299C144.594 144.299 148.745 148.459 148.745 153.622ZM139.44 114.894C144.594 114.894 148.745 110.734 148.745 105.571C148.745 100.407 144.594 96.2473 139.44 96.2473C134.287 96.2473 130.136 100.407 130.136 105.571C130.206 110.662 134.359 114.823 139.44 114.894ZM148.745 57.3754C148.745 62.5392 144.594 66.699 139.44 66.699C134.287 66.699 130.136 62.5392 130.136 57.3754C130.136 52.2117 134.287 48.0519 139.44 48.0519C144.594 48.0519 148.745 52.2117 148.745 57.3754ZM139.44 18.647C144.594 18.647 148.745 14.4873 148.745 9.32351C148.745 4.15975 144.594 2.64952e-10 139.44 2.64952e-10C134.287 2.64952e-10 130.136 4.15975 130.136 9.32351C130.136 14.4873 134.287 18.647 139.44 18.647ZM235.497 249.87C235.497 255.034 231.346 259.193 226.192 259.193C221.038 259.193 216.887 255.034 216.887 249.87C216.887 244.706 221.038 240.546 226.192 240.546C231.346 240.546 235.497 244.706 235.497 249.87ZM182.816 307.245C177.734 307.317 173.511 303.085 173.511 297.922C173.511 292.758 177.663 288.599 182.816 288.599C187.97 288.599 192.121 292.758 192.121 297.922C192.121 303.085 187.97 307.245 182.816 307.245ZM192.121 201.674C192.121 206.838 187.97 210.998 182.816 210.998C177.734 211.069 173.511 206.838 173.511 201.674C173.511 196.511 177.663 192.351 182.816 192.351C187.97 192.351 192.121 196.511 192.121 201.674ZM182.816 162.947C187.97 162.947 192.121 158.786 192.121 153.622C192.121 148.459 187.97 144.299 182.816 144.299C177.663 144.299 173.511 148.459 173.511 153.622C173.511 158.786 177.663 162.947 182.816 162.947ZM192.121 105.571C192.121 110.734 187.97 114.894 182.816 114.894C177.734 114.823 173.583 110.662 173.511 105.571C173.511 100.407 177.663 96.2473 182.816 96.2473C187.97 96.2473 192.121 100.407 192.121 105.571ZM182.816 66.699C187.97 66.699 192.121 62.5392 192.121 57.3754C192.121 52.2117 187.97 48.0519 182.816 48.0519C177.663 48.0519 173.511 52.2117 173.511 57.3754C173.511 62.5392 177.663 66.699 182.816 66.699ZM192.121 9.32351C192.121 14.4873 187.97 18.647 182.816 18.647C177.663 18.647 173.511 14.4873 173.511 9.32351C173.511 4.15975 177.663 2.64952e-10 182.816 2.64952e-10C187.97 2.64952e-10 192.121 4.15975 192.121 9.32351ZM226.192 210.998C231.346 210.998 235.497 206.838 235.497 201.674C235.497 196.511 231.345 192.351 226.192 192.351C221.038 192.351 216.887 196.511 216.887 201.674C216.887 206.838 221.11 211.069 226.192 210.998ZM235.497 153.622C235.497 158.786 231.346 162.947 226.192 162.947C221.038 162.947 216.887 158.786 216.887 153.622C216.887 148.459 221.038 144.299 226.192 144.299C231.346 144.299 235.497 148.459 235.497 153.622ZM235.497 57.3754C235.497 62.5392 231.346 66.699 226.192 66.699C221.038 66.699 216.887 62.5392 216.887 57.3754C216.887 52.2117 221.038 48.0519 226.192 48.0519C231.346 48.0519 235.497 52.2117 235.497 57.3754ZM226.192 18.647C231.346 18.647 235.497 14.4873 235.497 9.32351C235.497 4.15975 231.346 2.64952e-10 226.192 2.64952e-10C221.038 2.64952e-10 216.887 4.15975 216.887 9.32351C216.887 14.4873 221.038 18.647 226.192 18.647ZM278.872 201.674C278.872 206.838 274.721 210.998 269.568 210.998C264.486 211.069 260.263 206.838 260.263 201.674C260.263 196.511 264.414 192.351 269.568 192.351C274.721 192.351 278.872 196.511 278.872 201.674ZM269.568 48.0519C264.414 48.0519 260.263 52.2117 260.263 57.3754C260.263 62.5392 264.414 66.699 269.568 66.699C274.721 66.699 278.872 62.5392 278.872 57.3754C278.872 52.2117 274.721 48.0519 269.568 48.0519ZM278.872 9.32351C278.872 14.4873 274.721 18.647 269.568 18.647C264.414 18.647 260.263 14.4873 260.263 9.32351C260.263 4.15975 264.414 2.64952e-10 269.568 2.64952e-10C274.721 2.64952e-10 278.872 4.15975 278.872 9.32351ZM312.872 211.069C318.025 211.069 322.177 206.91 322.177 201.746C322.177 196.583 318.025 192.423 312.872 192.423C307.719 192.423 303.567 196.583 303.567 201.746C303.638 206.838 307.861 211.069 312.872 211.069ZM303.638 57.3754C303.638 52.2117 307.791 48.0519 312.944 48.0519C318.097 48.0519 322.249 52.2116 322.249 57.3754C322.249 62.5392 318.097 66.699 312.944 66.699C307.791 66.699 303.638 62.5392 303.638 57.3754ZM312.944 18.647C318.097 18.647 322.249 14.4873 322.249 9.32351C322.249 4.15975 318.097 2.64952e-10 312.944 2.64952e-10C307.791 2.64952e-10 303.638 4.15975 303.638 9.32351C303.638 14.4873 307.791 18.647 312.944 18.647ZM356.319 403.493C351.166 403.493 347.014 399.333 347.014 394.169C347.014 389.006 351.166 384.845 356.319 384.845C361.402 384.917 365.553 389.077 365.625 394.169C365.625 399.333 361.474 403.493 356.319 403.493ZM365.625 346.118C365.625 340.953 361.474 336.794 356.319 336.794C351.166 336.794 347.014 340.953 347.014 346.118C347.014 351.281 351.166 355.441 356.319 355.441C361.474 355.441 365.625 351.281 365.625 346.118ZM356.319 288.599C361.472 288.599 365.625 292.758 365.625 297.922C365.625 303.085 361.472 307.245 356.319 307.245C351.166 307.245 347.014 303.085 347.014 297.922C347.014 292.758 351.166 288.599 356.319 288.599ZM356.319 259.193C361.472 259.193 365.625 255.034 365.625 249.87C365.625 244.706 361.472 240.546 356.319 240.546C351.166 240.546 347.014 244.706 347.014 249.87C347.014 255.034 351.166 259.193 356.319 259.193ZM356.248 192.423C361.402 192.423 365.553 196.583 365.553 201.746C365.553 206.91 361.402 211.069 356.248 211.069C351.238 211.069 347.015 206.838 346.943 201.746C346.943 196.583 351.094 192.423 356.248 192.423ZM347.014 153.622C347.014 158.786 351.166 162.947 356.319 162.947C361.474 162.947 365.625 158.786 365.625 153.622C365.625 148.459 361.474 144.299 356.319 144.299C351.166 144.299 347.014 148.459 347.014 153.622ZM356.319 114.894C351.166 114.894 347.014 110.734 347.014 105.571C347.014 100.407 351.166 96.2473 356.319 96.2473C361.474 96.2473 365.625 100.407 365.625 105.571C365.625 110.734 361.474 114.894 356.319 114.894ZM356.319 48.0519C351.166 48.0519 347.014 52.2117 347.014 57.3754C347.014 62.5392 351.166 66.699 356.319 66.699C361.474 66.699 365.625 62.5392 365.625 57.3754C365.625 52.2117 361.474 48.0519 356.319 48.0519ZM365.625 9.32351C365.625 14.4873 361.474 18.647 356.319 18.647C351.166 18.647 347.014 14.4873 347.014 9.32351C347.014 4.15975 351.166 2.64952e-10 356.319 2.64952e-10C361.474 2.64952e-10 365.625 4.15975 365.625 9.32351ZM409 394.169C409 389.006 404.849 384.845 399.695 384.845C394.542 384.845 390.391 389.006 390.391 394.169C390.391 399.333 394.542 403.493 399.695 403.493C404.849 403.493 409 399.333 409 394.169ZM399.695 336.794C404.849 336.794 409 340.953 409 346.118C409 351.281 404.849 355.441 399.695 355.441C394.542 355.441 390.391 351.281 390.391 346.118C390.391 340.953 394.542 336.794 399.695 336.794ZM399.695 307.245C404.849 307.245 409 303.085 409 297.922C409 292.758 404.849 288.599 399.695 288.599C394.542 288.599 390.391 292.758 390.391 297.922C390.391 303.085 394.542 307.245 399.695 307.245ZM399.695 240.546C404.849 240.546 409 244.706 409 249.87C409 255.034 404.849 259.193 399.695 259.193C394.542 259.193 390.391 255.034 390.391 249.87C390.391 244.706 394.542 240.546 399.695 240.546ZM408.929 201.746C408.929 196.583 404.777 192.423 399.623 192.423C394.47 192.423 390.319 196.583 390.319 201.746C390.391 206.838 394.614 211.069 399.623 211.069C404.777 211.069 408.929 206.91 408.929 201.746ZM399.695 144.299C404.849 144.299 409 148.459 409 153.622C409 158.786 404.849 162.947 399.695 162.947C394.542 162.947 390.391 158.786 390.391 153.622C390.391 148.459 394.542 144.299 399.695 144.299ZM399.623 114.823C404.777 114.823 408.929 110.662 408.929 105.499C408.929 100.335 404.777 96.1756 399.623 96.1756C394.47 96.1756 390.319 100.335 390.319 105.499C390.461 110.662 394.614 114.823 399.623 114.823ZM409 57.3754C409 62.5392 404.849 66.699 399.695 66.699C394.542 66.699 390.391 62.5392 390.391 57.3754C390.391 52.2116 394.542 48.0519 399.695 48.0519C404.849 48.0519 409 52.2116 409 57.3754ZM409 9.32351C409 14.4873 404.849 18.647 399.695 18.647C394.542 18.647 390.391 14.4873 390.391 9.32351C390.391 4.15971 394.542 2.64952e-10 399.695 2.64952e-10C404.849 2.64952e-10 409 4.15971 409 9.32351Z" fill="#b50061"/>
</svg>
