<svg width="525" height="526" viewBox="0 0 525 526" fill="none" xmlns="http://www.w3.org/2000/svg">
<path d="M262.5 525.1C192.4 525.1 126.4 497.8 76.9 448.2C27.3 398.6 0 332.7 0 262.5C0 192.3 27.3 126.5 76.9 76.9C126.5 27.3 192.4 0 262.5 0C332.6 0 398.6 27.3 448.1 76.9C497.7 126.5 525 192.4 525 262.5C525 332.6 497.7 398.6 448.1 448.1C398.6 497.8 332.7 525.1 262.5 525.1ZM262.5 9.6C195 9.6 131.4 35.9 83.7 83.7C35.9 131.4 9.6 195 9.6 262.5C9.6 330 35.9 393.6 83.7 441.4C131.5 489.2 195 515.5 262.6 515.5C330.2 515.5 393.7 489.2 441.5 441.4C489.3 393.6 515.6 330.1 515.6 262.5C515.6 194.9 489.3 131.4 441.5 83.6C393.6 35.9 330.1 9.6 262.5 9.6ZM262.5 486.7C202.6 486.7 146.3 463.4 104 421C61.7 378.7 38.3 322.4 38.3 262.5C38.3 202.6 61.6 146.3 104 104C146.3 61.7 202.6 38.3 262.5 38.3C322.4 38.3 378.7 61.6 421 104C463.3 146.3 486.7 202.6 486.7 262.5C486.7 322.4 463.4 378.7 421 421C378.7 463.4 322.4 486.7 262.5 486.7ZM262.5 47.9C205.2 47.9 151.3 70.2 110.7 110.8C70.1 151.4 47.8 205.2 47.8 262.6C47.8 320 70.1 373.8 110.7 414.4C151.2 454.9 205.1 477.3 262.5 477.3C319.8 477.3 373.7 455 414.3 414.4C454.8 373.9 477.2 320 477.2 262.6C477.2 205.2 454.9 151.4 414.3 110.8C373.8 70.2 319.9 47.9 262.5 47.9ZM131.1 394C166.2 429.1 212.9 448.4 262.5 448.4C312.2 448.4 358.9 429.1 393.9 393.9C429 358.8 448.3 312.1 448.3 262.5C448.3 212.9 429 166.2 393.9 131.1C358.8 96 312.1 76.7 262.5 76.7C212.9 76.7 166.2 96 131.1 131.1C96 166.2 76.7 212.9 76.7 262.5C76.7 312.2 96 358.9 131.1 394ZM137.8 137.8C171.1 104.5 215.4 86.2 262.5 86.2C309.6 86.2 353.9 104.6 387.2 137.8C420.5 171.1 438.8 215.4 438.8 262.5C438.8 309.6 420.5 353.9 387.2 387.2C353.9 420.5 309.6 438.8 262.5 438.8C215.4 438.8 171.1 420.5 137.8 387.2C104.5 353.9 86.2 309.6 86.2 262.5C86.2 215.4 104.5 171.1 137.8 137.8ZM262.5 410.1C223.1 410.1 186 394.8 158.2 366.9C130.3 339 115 301.9 115 262.5C115 223.1 130.3 186 158.2 158.2C186.1 130.3 223.1 115 262.5 115C301.9 115 339 130.3 366.8 158.2C394.7 186.1 410 223.1 410 262.5C410 301.9 394.7 339 366.8 366.8C339 394.7 301.9 410.1 262.5 410.1ZM262.5 124.6C225.6 124.6 191 139 164.9 165C138.8 191.1 124.5 225.7 124.5 262.6C124.5 299.5 138.9 334.1 164.9 360.2C191 386.3 225.6 400.6 262.5 400.6C299.4 400.6 334 386.2 360.1 360.2C386.2 334.1 400.5 299.5 400.5 262.6C400.5 225.7 386.1 191.1 360.1 165C334 138.9 299.4 124.6 262.5 124.6ZM185.3 339.7C205.9 360.3 233.3 371.7 262.5 371.7C291.7 371.7 319.1 360.4 339.7 339.7C360.3 319.1 371.7 291.7 371.7 262.5C371.7 233.4 360.3 205.9 339.7 185.3C319.1 164.7 291.7 153.3 262.5 153.3C233.4 153.3 205.9 164.7 185.3 185.3C164.7 205.9 153.3 233.3 153.3 262.5C153.3 291.6 164.7 319.1 185.3 339.7ZM192.1 192.1C210.9 173.3 235.9 162.9 262.5 162.9C289.1 162.9 314.2 173.3 332.9 192.1C351.7 210.9 362.1 235.9 362.1 262.5C362.1 289.1 351.7 314.1 332.9 332.9C314.1 351.7 289.1 362.1 262.5 362.1C235.9 362.1 210.9 351.7 192.1 332.9C173.3 314.1 162.9 289.1 162.9 262.5C162.9 235.9 173.3 210.9 192.1 192.1ZM262.5 333.4C243.6 333.4 225.8 326 212.4 312.6C199 299.2 191.6 281.4 191.6 262.5C191.6 243.6 199 225.8 212.4 212.4C225.8 199 243.6 191.6 262.5 191.6C281.4 191.6 299.2 199 312.6 212.4C326 225.8 333.4 243.6 333.4 262.5C333.4 281.4 326 299.2 312.6 312.6C299.3 326 281.5 333.4 262.5 333.4ZM262.5 201.2C246.1 201.2 230.7 207.6 219.2 219.2C207.6 230.8 201.2 246.2 201.2 262.5C201.2 278.9 207.6 294.3 219.2 305.8C230.8 317.4 246.2 323.8 262.5 323.8C278.9 323.8 294.3 317.4 305.8 305.8C317.4 294.2 323.8 278.8 323.8 262.5C323.8 246.1 317.4 230.7 305.8 219.2C294.3 207.6 278.9 201.2 262.5 201.2ZM239.5 285.6C245.7 291.8 253.7 295.1 262.5 295.1C271.4 295.1 279.3 291.8 285.5 285.6C291.7 279.4 295 271.4 295 262.6C295 253.8 291.7 245.8 285.5 239.6C279.3 233.4 271.3 230.1 262.5 230.1C253.7 230.1 245.7 233.4 239.5 239.6C233.3 245.8 230 253.8 230 262.6C230 271.4 233.3 279.4 239.5 285.6ZM246.3 246.3C250.7 241.9 256.3 239.6 262.5 239.6C268.8 239.6 274.4 241.9 278.7 246.3C283.1 250.7 285.4 256.3 285.4 262.5C285.4 268.7 283.1 274.3 278.7 278.7C274.3 283.1 268.7 285.4 262.5 285.4C256.3 285.4 250.7 283.1 246.3 278.7C241.9 274.3 239.6 268.7 239.6 262.5C239.6 256.3 241.9 250.7 246.3 246.3Z" fill="white"/>
</svg>
