<svg width="162" height="55" viewBox="0 0 162 55" fill="none" xmlns="http://www.w3.org/2000/svg">
<path fill-rule="evenodd" clip-rule="evenodd" d="M162 11.6L138.78 0L115.28 11.73L91.78 0L68.29 11.73L44.8 0L21.3 11.73L0 1.09399V4.37L21.3 15.005L44.8 3.27502L68.29 15.005L91.78 3.27502L115.28 15.005L138.78 3.27502L162 14.875V11.6ZM162 24.931L138.78 13.331L115.28 25.061L91.78 13.331L68.29 25.061L44.8 13.331L21.3 25.061L0 14.426V17.7L21.3 28.336L44.8 16.606L68.29 28.336L91.78 16.606L115.28 28.336L138.78 16.606L162 28.2V24.924V24.931ZM162 38.262L138.78 26.662L115.28 38.392L91.78 26.662L68.29 38.392L44.8 26.662L21.3 38.392L0 27.757V31.033L21.3 41.669L44.8 29.939L68.29 41.669L91.78 29.939L115.28 41.669L138.78 29.939L162 41.539V38.263V38.262ZM162 51.594L138.78 39.994L115.28 51.724L91.78 39.994L68.29 51.724L44.8 39.994L21.3 51.724L0 41.088V44.364L21.3 55L44.8 43.27L68.29 55L91.78 43.27L115.28 55L138.78 43.27L162 54.87V51.59V51.594Z" fill="#56B8B7"/>
</svg>
