<svg xmlns="http://www.w3.org/2000/svg" width="2179.769" height="609.756" viewBox="0 0 1634.827 457.317"><path d="M166.113 326.351q-26.065 0-46.773-12.854-20.352-12.854-32.491-34.991-11.783-22.137-11.783-49.63 0-27.493 11.783-49.63 12.14-22.137 32.491-34.991 20.709-12.854 46.773-12.854 24.993 0 45.345 10.355 20.709 9.997 31.42 27.493l-20.352 24.993q-5.713-8.212-14.639-14.996-8.926-6.784-18.924-10.711-9.997-3.928-19.281-3.928-17.138 0-30.706 8.569-13.211 8.212-21.066 22.851-7.855 14.639-7.855 32.849 0 18.21 8.212 32.849 8.212 14.282 21.78 22.851 13.568 8.569 29.992 8.569 9.64 0 18.567-3.213 9.283-3.213 17.852-9.64 8.569-6.427 16.067-15.71l20.352 24.993q-11.426 16.067-32.849 26.422-21.066 10.354-43.917 10.354zm291.881 0q-27.493 0-49.273-12.497-21.423-12.854-33.92-34.634-12.497-22.137-12.497-50.344 0-28.207 12.497-49.987 12.497-22.137 33.92-34.634 21.78-12.854 49.273-12.854 27.136 0 48.559 12.854 21.78 12.497 34.277 34.634 12.497 21.78 12.497 49.987 0 28.207-12.497 50.344-12.497 21.78-34.277 34.634-21.423 12.497-48.559 12.497zm0-33.563q16.781 0 29.992-8.212 13.211-8.569 20.709-22.851 7.498-14.639 7.141-32.849.357-18.567-7.141-32.848-7.498-14.639-20.709-22.851-13.211-8.212-29.992-8.212-16.781 0-30.349 8.569-13.211 8.212-20.709 22.851-7.498 14.282-7.141 32.491-.357 18.21 7.141 32.849 7.498 14.282 20.709 22.851 13.568 8.212 30.349 8.212zm135.322 29.992V135.329h37.133v58.913l-3.57-14.282q3.928-13.568 13.211-24.636 9.64-11.068 21.78-17.495 12.497-6.427 25.708-6.427 6.07 0 11.426 1.071 5.713 1.071 8.926 2.499l-9.64 39.989q-4.285-1.785-9.64-2.856-4.999-1.428-9.997-1.428-9.64 0-18.567 3.928-8.569 3.571-15.353 10.355-6.427 6.427-10.354 15.353-3.928 8.569-3.928 18.924V322.78zm214.229 3.571q-25.708 0-46.059-12.497Q741.491 301 729.708 279.22q-11.783-22.137-11.783-50.344 0-28.207 11.426-49.987 11.783-22.137 31.777-34.634 19.995-12.854 45.345-12.854 13.925 0 26.779 4.642 13.211 4.285 23.565 12.14 10.354 7.498 16.067 16.781 6.07 8.926 6.07 18.21l-10.712.714V58.564h36.776V322.78h-36.776v-44.631h7.141q0 8.569-5.713 17.139-5.713 8.212-15.353 15.353-9.283 7.141-21.78 11.426-12.14 4.285-24.993 4.285zm4.999-31.777q16.781 0 29.635-8.569 12.854-8.569 19.995-23.208 7.498-14.996 7.498-33.92 0-18.924-7.498-33.563-7.141-14.996-19.995-23.565-12.854-8.569-29.635-8.569-16.781 0-29.635 8.569-12.854 8.569-20.352 23.565-7.141 14.639-7.141 33.563 0 18.924 7.141 33.92 7.498 14.639 20.352 23.208 12.854 8.569 29.635 8.569zM961.79 322.78V135.329h36.776V322.78zm17.852-228.869q-11.783 0-18.209-6.07-6.427-6.07-6.427-17.138 0-10.354 6.427-16.781 6.784-6.427 18.209-6.427 11.783 0 18.21 6.07 6.427 6.07 6.427 17.138 0 10.355-6.784 16.781-6.427 6.427-17.853 6.427zm147.462 232.44q-23.208 0-42.489-12.854-18.924-12.854-30.349-34.991-11.426-22.137-11.426-49.987 0-28.207 11.426-49.987 11.783-22.137 31.42-34.634 19.995-12.497 44.631-12.497 14.639 0 26.779 4.285 12.14 4.285 21.066 12.14 9.283 7.498 14.996 17.495 6.07 9.998 7.498 21.423l-8.212-2.856v-48.559h37.133V322.78h-37.133v-44.631l8.569-2.499q-2.142 9.64-8.926 18.924-6.427 8.926-16.781 16.067-9.997 7.141-22.494 11.426-12.14 4.285-25.707 4.285zm9.64-33.92q16.781 0 29.635-8.212 12.854-8.212 19.995-22.494 7.498-14.639 7.498-33.206 0-18.21-7.498-32.492-7.141-14.282-19.995-22.494-12.854-8.212-29.635-8.212-16.424 0-29.278 8.212-12.497 8.212-19.995 22.494-7.141 14.282-7.141 32.492 0 18.567 7.141 33.206 7.498 14.282 19.995 22.494 12.854 8.212 29.278 8.212zm144.962 30.349V58.564h36.776V322.78zm89.619 0V58.564h36.776V322.78zm114.97 82.122l37.847-87.477.357 29.278-93.547-211.373h42.846l58.556 137.821q1.785 3.57 4.285 11.068 2.499 7.141 4.285 14.282l-9.283 2.142q2.856-7.498 5.356-14.996 2.857-7.498 5.356-14.996l48.916-135.322h43.56l-77.123 187.451-31.777 82.121zM287.502 65.34h-43.123V34.014c0-10.887-4.452-21.182-11.902-27.551-7.103-6.076-16.06-7.998-24.537-5.21L10.388 65.977C5.171 67.701 0 74.468 0 81.672v359.312c0 9.019 6.431 16.333 14.376 16.333h273.122c15.849 0 28.751-14.651 28.751-32.667V98.004c0-18.015-12.898-32.667-28.751-32.667zm-71.874-31.326V65.34h-97.535zM28.754 424.648V98.001h258.748l.013 326.647zm46.551-69.178h168v33.602h-168z"/></svg>