<svg width="44" height="10" viewBox="0 0 44 10" fill="none" xmlns="http://www.w3.org/2000/svg">
<g opacity="0.5">
<path fill-rule="evenodd" clip-rule="evenodd" d="M39.0968 0C36.4432 0 34.2919 2.15136 34.2919 4.80499C34.2919 7.45932 36.4432 9.60999 39.0968 9.60999C41.7505 9.60999 43.9018 7.45932 43.9018 4.80499C43.9018 2.15136 41.7505 0 39.0968 0ZM22.0072 0C19.3536 0 17.2022 2.15136 17.2022 4.80499C17.2022 7.45932 19.3536 9.60999 22.0072 9.60999C24.6612 9.60999 26.8122 7.45932 26.8122 4.80499C26.8122 2.15136 24.6612 0 22.0072 0ZM9.72388 4.80499C9.72388 7.45932 7.57251 9.60999 4.91827 9.60999C2.26465 9.60999 0.113281 7.45932 0.113281 4.80499C0.113281 2.15136 2.26465 0 4.91827 0C7.5726 0 9.72388 2.15136 9.72388 4.80499Z" fill="black"/>
</g>
</svg>
