<svg width="24" height="30" viewBox="0 0 24 30" fill="none" xmlns="http://www.w3.org/2000/svg">
<g opacity="0.4">
<path d="M23.9996 3.74991V5.24981C23.9996 5.66414 23.6637 5.99991 23.2495 5.99991H0.750101C0.336004 5.99991 0 5.66417 0 5.24981V3.74991C0 3.33581 0.335974 2.99981 0.750101 2.99981H7.49993V1.4999C7.49993 0.671472 8.17164 0 9.00008 0H14.9999C15.8284 0 16.5001 0.671472 16.5001 1.4999V2.99981H23.2499C23.664 2.99981 24 3.33578 24 3.74991H23.9996ZM2.80493 27.2094C2.91537 28.7838 4.22674 30.0033 5.80497 29.9993H18.2243C19.8026 30.0033 21.1139 28.7838 21.2244 27.2094L22.4992 8.99978H1.49972L2.80493 27.2094Z" fill="black"/>
</g>
</svg>
